<svg width="1011" height="203" viewBox="0 0 1011 203" fill="none" xmlns="http://www.w3.org/2000/svg">
<g clip-path="url(#clip0_8_22)">
<g clip-path="url(#clip1_8_22)">
<path d="M900.281 53.886C979.772 75.1855 1026.98 156.959 1005.68 236.45C984.384 315.94 902.611 363.152 823.12 341.853C751.729 322.723 706.441 254.969 713.287 183.822L663.293 170.426L644.003 242.418L596.008 229.558L615.298 157.566L551.306 140.419L564.166 92.425L628.158 109.572L647.449 37.5801L695.443 50.4402L676.153 122.432L726.147 135.828C755.791 70.7899 828.889 34.7567 900.281 53.886ZM835.981 293.858C888.874 308.031 943.517 276.483 957.69 223.589C971.862 170.696 940.315 116.053 887.421 101.88C834.527 87.7076 779.885 119.255 765.712 172.149C751.539 225.043 783.087 279.685 835.981 293.858Z" fill="url(#paint0_linear_8_22)"/>
</g>
</g>
<defs>
<linearGradient id="paint0_linear_8_22" x1="1005.68" y1="236.45" x2="557.736" y2="116.422" gradientUnits="userSpaceOnUse">
<stop stop-color="#EC4899"/>
<stop offset="1" stop-color="#F472B6"/>
</linearGradient>
<clipPath id="clip0_8_22">
<rect width="1011" height="203" fill="white"/>
</clipPath>
<clipPath id="clip1_8_22">
<rect width="530" height="530" fill="white" transform="matrix(-0.866025 0.5 0.5 0.866025 867.993 -188)"/>
</clipPath>
</defs>
</svg>
