<svg width="1011" height="203" viewBox="0 0 1011 203" fill="none" xmlns="http://www.w3.org/2000/svg">
<g clip-path="url(#clip0_7_15)">
<g clip-path="url(#clip1_7_15)">
<path d="M519.905 70.3432L634.653 4.09315L659.497 47.1238L575.139 95.8279L725.966 136.166C738.39 109.032 759.084 85.2507 786.965 69.154C858.234 28.0065 949.44 52.4452 990.588 123.715C1031.74 194.984 1007.3 286.19 936.027 327.338C864.758 368.485 773.551 344.047 732.404 272.777C716.307 244.897 710.276 213.955 713.084 184.244L562.295 143.764L610.999 228.122L567.968 252.966L476.874 95.1869L519.905 70.3432ZM911.183 284.307C958.607 256.927 974.937 195.982 947.557 148.558C920.177 101.135 859.232 84.8048 811.808 112.185C764.385 139.565 748.055 200.51 775.435 247.933C802.814 295.357 863.76 311.687 911.183 284.307Z" fill="url(#paint0_linear_7_15)"/>
</g>
</g>
<defs>
<linearGradient id="paint0_linear_7_15" x1="1065.12" y1="252.807" x2="476.874" y2="95.1869" gradientUnits="userSpaceOnUse">
<stop stop-color="#2563EB"/>
<stop offset="1" stop-color="#3B82F6"/>
</linearGradient>
<clipPath id="clip0_7_15">
<rect width="1011" height="203" fill="white"/>
</clipPath>
<clipPath id="clip1_7_15">
<rect width="530" height="530" fill="white" transform="matrix(-0.866025 0.5 0.5 0.866025 867.993 -188)"/>
</clipPath>
</defs>
</svg>
